<?xml version="1.0" encoding="us-ascii" standalone="no"?><svg xmlns="http://www.w3.org/2000/svg" xmlns:xlink="http://www.w3.org/1999/xlink" contentStyleType="text/css" height="977px" preserveAspectRatio="none" style="width:996px;height:977px;background:#FFFFFF;" version="1.1" viewBox="0 0 996 977" width="996px" zoomAndPan="magnify"><defs/><g><rect fill="none" height="131.806" style="stroke:#000000;stroke-width:1.5;" width="718" x="20" y="209.186"/><rect fill="none" height="260.63" style="stroke:#000000;stroke-width:1.5;" width="385.5" x="10" y="354.9919"/><rect fill="none" height="100.0999" style="stroke:#000000;stroke-width:1.5;" width="365.5" x="20" y="508.522"/><line style="stroke:#181818;stroke-width:0.5;stroke-dasharray:5.0,5.0;" x1="61" x2="61" y1="84.0679" y2="893.5641"/><line style="stroke:#181818;stroke-width:0.5;stroke-dasharray:5.0,5.0;" x1="357.5" x2="357.5" y1="84.0679" y2="893.5641"/><line style="stroke:#181818;stroke-width:0.5;stroke-dasharray:5.0,5.0;" x1="693" x2="693" y1="84.0679" y2="893.5641"/><text fill="#000000" font-family="sans-serif" font-size="14" lengthAdjust="spacing" textLength="57" x="30" y="79.9659">Member</text><ellipse cx="61.5" cy="13.5" fill="#E2E2F0" rx="8" ry="8" style="stroke:#181818;stroke-width:0.5;"/><path d="M61.5,21.5 L61.5,48.5 M48.5,29.5 L74.5,29.5 M61.5,48.5 L48.5,63.5 M61.5,48.5 L74.5,63.5 " fill="none" style="stroke:#181818;stroke-width:0.5;"/><text fill="#000000" font-family="sans-serif" font-size="14" lengthAdjust="spacing" textLength="57" x="30" y="907.53">Member</text><ellipse cx="61.5" cy="920.132" fill="#E2E2F0" rx="8" ry="8" style="stroke:#181818;stroke-width:0.5;"/><path d="M61.5,928.132 L61.5,955.132 M48.5,936.132 L74.5,936.132 M61.5,955.132 L48.5,970.132 M61.5,955.132 L74.5,970.132 " fill="none" style="stroke:#181818;stroke-width:0.5;"/><rect fill="#E2E2F0" height="33.0679" rx="2.5" ry="2.5" style="stroke:#181818;stroke-width:0.5;" width="36" x="339.5" y="50"/><text fill="#000000" font-family="sans-serif" font-size="14" lengthAdjust="spacing" textLength="22" x="346.5" y="71.9659">Bot</text><rect fill="#E2E2F0" height="33.0679" rx="2.5" ry="2.5" style="stroke:#181818;stroke-width:0.5;" width="36" x="339.5" y="892.5641"/><text fill="#000000" font-family="sans-serif" font-size="14" lengthAdjust="spacing" textLength="22" x="346.5" y="914.53">Bot</text><text fill="#000000" font-family="sans-serif" font-size="14" lengthAdjust="spacing" textLength="63" x="659" y="79.9659">DataBase</text><path d="M675.5,29 C675.5,19 693.5,19 693.5,19 C693.5,19 711.5,19 711.5,29 L711.5,55 C711.5,65 693.5,65 693.5,65 C693.5,65 675.5,65 675.5,55 L675.5,29 " fill="#E2E2F0" style="stroke:#181818;stroke-width:1.5;"/><path d="M675.5,29 C675.5,39 693.5,39 693.5,39 C693.5,39 711.5,39 711.5,29 " fill="none" style="stroke:#181818;stroke-width:1.5;"/><text fill="#000000" font-family="sans-serif" font-size="14" lengthAdjust="spacing" textLength="63" x="659" y="907.53">DataBase</text><path d="M675.5,921.632 C675.5,911.632 693.5,911.632 693.5,911.632 C693.5,911.632 711.5,911.632 711.5,921.632 L711.5,947.632 C711.5,957.632 693.5,957.632 693.5,957.632 C693.5,957.632 675.5,957.632 675.5,947.632 L675.5,921.632 " fill="#E2E2F0" style="stroke:#181818;stroke-width:1.5;"/><path d="M675.5,921.632 C675.5,931.632 693.5,931.632 693.5,931.632 C693.5,931.632 711.5,931.632 711.5,921.632 " fill="none" style="stroke:#181818;stroke-width:1.5;"/><polygon fill="#181818" points="345.5,113.7739,355.5,117.7739,345.5,121.7739,349.5,117.7739" style="stroke:#181818;stroke-width:1.0;"/><line style="stroke:#181818;stroke-width:1.0;" x1="61.5" x2="351.5" y1="117.7739" y2="117.7739"/><text fill="#000000" font-family="sans-serif" font-size="13" lengthAdjust="spacing" textLength="225" x="68.5" y="111.9649">&#1042;&#1099;&#1079;&#1086;&#1074; &#1082;&#1086;&#1084;&#1072;&#1085;&#1076;&#1099; "/add_new_student"</text><polygon fill="#181818" points="681.5,145.4799,691.5,149.4799,681.5,153.4799,685.5,149.4799" style="stroke:#181818;stroke-width:1.0;"/><line style="stroke:#181818;stroke-width:1.0;" x1="357.5" x2="687.5" y1="149.4799" y2="149.4799"/><text fill="#000000" font-family="sans-serif" font-size="13" lengthAdjust="spacing" textLength="160" x="364.5" y="143.6709">&#1047;&#1072;&#1087;&#1088;&#1086;&#1089; &#1089;&#1090;&#1072;&#1090;&#1091;&#1089;&#1072; &#1091;&#1095;&#1072;&#1089;&#1090;&#1085;&#1080;&#1082;&#1072;</text><line style="stroke:#181818;stroke-width:1.0;" x1="693.5" x2="735.5" y1="181.186" y2="181.186"/><line style="stroke:#181818;stroke-width:1.0;" x1="735.5" x2="735.5" y1="181.186" y2="194.186"/><line style="stroke:#181818;stroke-width:1.0;" x1="694.5" x2="735.5" y1="194.186" y2="194.186"/><polygon fill="#181818" points="704.5,190.186,694.5,194.186,704.5,198.186,700.5,194.186" style="stroke:#181818;stroke-width:1.0;"/><text fill="#000000" font-family="sans-serif" font-size="13" lengthAdjust="spacing" textLength="174" x="700.5" y="175.377">&#1055;&#1086;&#1083;&#1091;&#1095;&#1077;&#1085;&#1080;&#1077; &#1089;&#1090;&#1072;&#1090;&#1091;&#1089;&#1072; &#1091;&#1095;&#1077;&#1085;&#1080;&#1082;&#1072;</text><path d="M20,209.186 L83,209.186 L83,218.892 L73,228.892 L20,228.892 L20,209.186 " fill="#EEEEEE" style="stroke:#000000;stroke-width:1.5;"/><rect fill="none" height="131.806" style="stroke:#000000;stroke-width:1.5;" width="718" x="20" y="209.186"/><text fill="#000000" font-family="sans-serif" font-size="13" font-weight="bold" lengthAdjust="spacing" textLength="18" x="35" y="224.083">alt</text><text fill="#000000" font-family="sans-serif" font-size="11" font-weight="bold" lengthAdjust="spacing" textLength="107" x="98" y="222.9449">["status = student"]</text><polygon fill="#181818" points="368.5,248.598,358.5,252.598,368.5,256.598,364.5,252.598" style="stroke:#181818;stroke-width:1.0;"/><line style="stroke:#181818;stroke-width:1.0;stroke-dasharray:2.0,2.0;" x1="362.5" x2="692.5" y1="252.598" y2="252.598"/><text fill="#000000" font-family="sans-serif" font-size="13" lengthAdjust="spacing" textLength="99" x="374.5" y="246.789">&#1057;&#1090;&#1072;&#1090;&#1091;&#1089; "&#1059;&#1095;&#1077;&#1085;&#1080;&#1082;"</text><polygon fill="#181818" points="72.5,280.304,62.5,284.304,72.5,288.304,68.5,284.304" style="stroke:#181818;stroke-width:1.0;"/><line style="stroke:#181818;stroke-width:1.0;stroke-dasharray:2.0,2.0;" x1="66.5" x2="356.5" y1="284.304" y2="284.304"/><text fill="#000000" font-family="sans-serif" font-size="13" lengthAdjust="spacing" textLength="155" x="78.5" y="278.495">&#1069;&#1090;&#1072; &#1082;&#1086;&#1084;&#1072;&#1085;&#1076;&#1072; &#1085;&#1077;&#1076;&#1086;&#1089;&#1090;&#1091;&#1087;&#1085;&#1072;</text><line style="stroke:#000000;stroke-width:1.0;stroke-dasharray:2.0,2.0;" x1="20" x2="738" y1="293.304" y2="293.304"/><text fill="#000000" font-family="sans-serif" font-size="11" font-weight="bold" lengthAdjust="spacing" textLength="108" x="25" y="305.0629">["status = teacher"]</text><polygon fill="#181818" points="368.5,328.9919,358.5,332.9919,368.5,336.9919,364.5,332.9919" style="stroke:#181818;stroke-width:1.0;"/><line style="stroke:#181818;stroke-width:1.0;" x1="362.5" x2="692.5" y1="332.9919" y2="332.9919"/><text fill="#000000" font-family="sans-serif" font-size="13" lengthAdjust="spacing" textLength="105" x="374.5" y="327.1829">&#1057;&#1090;&#1072;&#1090;&#1091;&#1089; "&#1059;&#1095;&#1080;&#1090;&#1077;&#1083;&#1100;"</text><path d="M10,354.9919 L83,354.9919 L83,364.6979 L73,374.6979 L10,374.6979 L10,354.9919 " fill="#EEEEEE" style="stroke:#000000;stroke-width:1.5;"/><rect fill="none" height="260.63" style="stroke:#000000;stroke-width:1.5;" width="385.5" x="10" y="354.9919"/><text fill="#000000" font-family="sans-serif" font-size="13" font-weight="bold" lengthAdjust="spacing" textLength="28" x="25" y="369.8889">loop</text><text fill="#000000" font-family="sans-serif" font-size="11" font-weight="bold" lengthAdjust="spacing" textLength="260" x="98" y="368.7508">[&#1055;&#1086;&#1082;&#1072; &#1085;&#1077; &#1087;&#1086;&#1076;&#1090;&#1074;&#1077;&#1088;&#1078;&#1076;&#1077;&#1085;&#1099; &#1082;&#1086;&#1088;&#1088;&#1077;&#1082;&#1090;&#1085;&#1099;&#1077; &#1076;&#1072;&#1085;&#1085;&#1099;&#1077;]</text><polygon fill="#181818" points="72.5,394.404,62.5,398.404,72.5,402.404,68.5,398.404" style="stroke:#181818;stroke-width:1.0;"/><line style="stroke:#181818;stroke-width:1.0;" x1="66.5" x2="356.5" y1="398.404" y2="398.404"/><text fill="#000000" font-family="sans-serif" font-size="13" lengthAdjust="spacing" textLength="192" x="78.5" y="392.595">&#1047;&#1072;&#1087;&#1088;&#1086;&#1089; &#1080;&#1084;&#1077;&#1085;&#1080; &#1085;&#1086;&#1074;&#1086;&#1075;&#1086; &#1091;&#1095;&#1077;&#1085;&#1080;&#1082;&#1072;</text><polygon fill="#181818" points="345.5,426.11,355.5,430.11,345.5,434.11,349.5,430.11" style="stroke:#181818;stroke-width:1.0;"/><line style="stroke:#181818;stroke-width:1.0;stroke-dasharray:2.0,2.0;" x1="61.5" x2="351.5" y1="430.11" y2="430.11"/><text fill="#000000" font-family="sans-serif" font-size="13" lengthAdjust="spacing" textLength="149" x="68.5" y="424.301">&#1055;&#1088;&#1077;&#1076;&#1086;&#1089;&#1090;&#1072;&#1074;&#1083;&#1077;&#1085;&#1080;&#1077; &#1080;&#1084;&#1077;&#1085;&#1080;</text><polygon fill="#181818" points="72.5,457.816,62.5,461.816,72.5,465.816,68.5,461.816" style="stroke:#181818;stroke-width:1.0;"/><line style="stroke:#181818;stroke-width:1.0;" x1="66.5" x2="356.5" y1="461.816" y2="461.816"/><text fill="#000000" font-family="sans-serif" font-size="13" lengthAdjust="spacing" textLength="272" x="78.5" y="456.007">&#1047;&#1072;&#1087;&#1088;&#1086;&#1089; &#1087;&#1086;&#1076;&#1090;&#1074;&#1077;&#1088;&#1078;&#1076;&#1077;&#1085;&#1080;&#1103; &#1074;&#1074;&#1077;&#1076;&#1077;&#1085;&#1085;&#1099;&#1093; &#1076;&#1072;&#1085;&#1085;&#1099;&#1093;</text><polygon fill="#181818" points="345.5,489.522,355.5,493.522,345.5,497.522,349.5,493.522" style="stroke:#181818;stroke-width:1.0;"/><line style="stroke:#181818;stroke-width:1.0;" x1="61.5" x2="351.5" y1="493.522" y2="493.522"/><text fill="#000000" font-family="sans-serif" font-size="13" lengthAdjust="spacing" textLength="127" x="68.5" y="487.713">&#1054;&#1090;&#1074;&#1077;&#1090; &#1087;&#1086;&#1083;&#1100;&#1079;&#1086;&#1074;&#1072;&#1090;&#1077;&#1083;&#1103;</text><path d="M20,508.522 L83,508.522 L83,518.228 L73,528.228 L20,528.228 L20,508.522 " fill="#EEEEEE" style="stroke:#000000;stroke-width:1.5;"/><rect fill="none" height="100.0999" style="stroke:#000000;stroke-width:1.5;" width="365.5" x="20" y="508.522"/><text fill="#000000" font-family="sans-serif" font-size="13" font-weight="bold" lengthAdjust="spacing" textLength="18" x="35" y="523.419">alt</text><text fill="#000000" font-family="sans-serif" font-size="11" font-weight="bold" lengthAdjust="spacing" textLength="119" x="98" y="522.2809">["&#1053;&#1077; &#1087;&#1086;&#1076;&#1090;&#1074;&#1077;&#1088;&#1078;&#1076;&#1077;&#1085;&#1086;"]</text><polygon fill="#181818" points="72.5,547.934,62.5,551.934,72.5,555.934,68.5,551.934" style="stroke:#181818;stroke-width:1.0;"/><line style="stroke:#181818;stroke-width:1.0;" x1="66.5" x2="356.5" y1="551.934" y2="551.934"/><text fill="#000000" font-family="sans-serif" font-size="13" lengthAdjust="spacing" textLength="163" x="78.5" y="546.125">&#1055;&#1086;&#1074;&#1090;&#1086;&#1088;&#1085;&#1099;&#1081; &#1079;&#1072;&#1087;&#1088;&#1086;&#1089; &#1080;&#1084;&#1077;&#1085;&#1080;</text><polygon fill="#181818" points="345.5,579.6401,355.5,583.6401,345.5,587.6401,349.5,583.6401" style="stroke:#181818;stroke-width:1.0;"/><line style="stroke:#181818;stroke-width:1.0;stroke-dasharray:2.0,2.0;" x1="61.5" x2="351.5" y1="583.6401" y2="583.6401"/><text fill="#000000" font-family="sans-serif" font-size="13" lengthAdjust="spacing" textLength="220" x="68.5" y="577.831">&#1055;&#1086;&#1074;&#1090;&#1086;&#1088;&#1085;&#1086;&#1077; &#1087;&#1088;&#1077;&#1076;&#1086;&#1089;&#1090;&#1072;&#1074;&#1083;&#1077;&#1085;&#1080;&#1077; &#1080;&#1084;&#1077;&#1085;&#1080;</text><line style="stroke:#000000;stroke-width:1.0;stroke-dasharray:2.0,2.0;" x1="20" x2="385.5" y1="592.6401" y2="592.6401"/><text fill="#000000" font-family="sans-serif" font-size="11" font-weight="bold" lengthAdjust="spacing" textLength="103" x="25" y="604.399">["&#1055;&#1086;&#1076;&#1090;&#1074;&#1077;&#1088;&#1078;&#1076;&#1077;&#1085;&#1086;"]</text><polygon fill="#181818" points="681.5,642.328,691.5,646.328,681.5,650.328,685.5,646.328" style="stroke:#181818;stroke-width:1.0;"/><line style="stroke:#181818;stroke-width:1.0;" x1="357.5" x2="687.5" y1="646.328" y2="646.328"/><text fill="#000000" font-family="sans-serif" font-size="13" lengthAdjust="spacing" textLength="162" x="364.5" y="640.519">&#1047;&#1072;&#1087;&#1088;&#1086;&#1089; &#1085;&#1086;&#1074;&#1086;&#1075;&#1086; member-id</text><line style="stroke:#181818;stroke-width:1.0;" x1="693.5" x2="735.5" y1="678.034" y2="678.034"/><line style="stroke:#181818;stroke-width:1.0;" x1="735.5" x2="735.5" y1="678.034" y2="691.034"/><line style="stroke:#181818;stroke-width:1.0;" x1="694.5" x2="735.5" y1="691.034" y2="691.034"/><polygon fill="#181818" points="704.5,687.034,694.5,691.034,704.5,695.034,700.5,691.034" style="stroke:#181818;stroke-width:1.0;"/><text fill="#000000" font-family="sans-serif" font-size="13" lengthAdjust="spacing" textLength="185" x="700.5" y="672.225">&#1043;&#1077;&#1085;&#1077;&#1088;&#1072;&#1094;&#1080;&#1103; &#1085;&#1086;&#1074;&#1086;&#1075;&#1086; member-id</text><line style="stroke:#181818;stroke-width:1.0;" x1="693.5" x2="735.5" y1="722.74" y2="722.74"/><line style="stroke:#181818;stroke-width:1.0;" x1="735.5" x2="735.5" y1="722.74" y2="735.74"/><line style="stroke:#181818;stroke-width:1.0;" x1="694.5" x2="735.5" y1="735.74" y2="735.74"/><polygon fill="#181818" points="704.5,731.74,694.5,735.74,704.5,739.74,700.5,735.74" style="stroke:#181818;stroke-width:1.0;"/><text fill="#000000" font-family="sans-serif" font-size="13" lengthAdjust="spacing" textLength="289" x="700.5" y="716.931">&#1047;&#1072;&#1087;&#1080;&#1089;&#1100; &#1074; &#1090;&#1072;&#1073;&#1083;&#1080;&#1094;&#1091; all-members &#1085;&#1086;&#1074;&#1086;&#1075;&#1086; &#1091;&#1095;&#1077;&#1085;&#1080;&#1082;&#1072;</text><polygon fill="#181818" points="368.5,763.446,358.5,767.446,368.5,771.446,364.5,767.446" style="stroke:#181818;stroke-width:1.0;"/><line style="stroke:#181818;stroke-width:1.0;stroke-dasharray:2.0,2.0;" x1="362.5" x2="692.5" y1="767.446" y2="767.446"/><text fill="#000000" font-family="sans-serif" font-size="13" lengthAdjust="spacing" textLength="222" x="374.5" y="761.637">&#1055;&#1088;&#1077;&#1076;&#1086;&#1089;&#1090;&#1072;&#1074;&#1083;&#1077;&#1085;&#1080;&#1077; &#1085;&#1086;&#1074;&#1086;&#1075;&#1086; member-id</text><polygon fill="#181818" points="681.5,795.152,691.5,799.152,681.5,803.152,685.5,799.152" style="stroke:#181818;stroke-width:1.0;"/><line style="stroke:#181818;stroke-width:1.0;" x1="357.5" x2="687.5" y1="799.152" y2="799.152"/><text fill="#000000" font-family="sans-serif" font-size="13" lengthAdjust="spacing" textLength="312" x="364.5" y="793.343">&#1047;&#1072;&#1087;&#1088;&#1086;&#1089; &#1085;&#1072; &#1076;&#1086;&#1073;&#1072;&#1074;&#1083;&#1077;&#1085;&#1080;&#1077; &#1085;&#1086;&#1074;&#1086;&#1075;&#1086; &#1091;&#1095;&#1077;&#1085;&#1080;&#1082;&#1072; &#1082; &#1091;&#1095;&#1080;&#1090;&#1077;&#1083;&#1102;</text><line style="stroke:#181818;stroke-width:1.0;" x1="693.5" x2="735.5" y1="830.858" y2="830.858"/><line style="stroke:#181818;stroke-width:1.0;" x1="735.5" x2="735.5" y1="830.858" y2="843.858"/><line style="stroke:#181818;stroke-width:1.0;" x1="694.5" x2="735.5" y1="843.858" y2="843.858"/><polygon fill="#181818" points="704.5,839.858,694.5,843.858,704.5,847.858,700.5,843.858" style="stroke:#181818;stroke-width:1.0;"/><text fill="#000000" font-family="sans-serif" font-size="13" lengthAdjust="spacing" textLength="210" x="700.5" y="825.049">&#1047;&#1072;&#1087;&#1080;&#1089;&#1100; &#1074; &#1090;&#1072;&#1073;&#1083;&#1080;&#1094;&#1091; teacher_student</text><polygon fill="#181818" points="72.5,871.5641,62.5,875.5641,72.5,879.5641,68.5,875.5641" style="stroke:#181818;stroke-width:1.0;"/><line style="stroke:#181818;stroke-width:1.0;stroke-dasharray:2.0,2.0;" x1="66.5" x2="356.5" y1="875.5641" y2="875.5641"/><text fill="#000000" font-family="sans-serif" font-size="13" lengthAdjust="spacing" textLength="174" x="78.5" y="869.7551">&#1055;&#1088;&#1077;&#1076;&#1086;&#1089;&#1090;&#1072;&#1074;&#1083;&#1077;&#1085;&#1080;&#1077; member-id</text><!--SRC=[bLGzRzj03DtrAmZjHlS2xH1qpMy8JZu1CI1_mBgWQ-mWwP0W0TgXKn84dGkegjMwJgpy1Tu_okETRDckhAQ3S3gAVEHx9AMwPZYcmxWVnMDIAVNx4GKZDJQzRc-a1eOEXaRi4Ov0AwCYbSRq0Iy7ye8l6W61X7NUEw-tn9_j9V_cadFY1OudpdZ9Ctj9uHkbzT4W_dYKcXCT3qmOI0WYWOB0h_1yjgTSsWdPYProPgVsp4uu8noVS1NZakV0pG8TrP7toFFeV0htlMYCBzQnWKeCXQbHvYIbTxGkHp0z4O0-r0WKyhSQe2eRZa8Sdj_5SukjN9VmdmaPmU1dtBCWJY1RdTZ4gdiSZyEApBwySrWA4BmAWtYWWsGu77dEYoeF0Rw4nbFEkO22lv0OnK9pASgUmbJmGiH3R-0zSrMwowe55PND7e3ha-SiIT1GF3-vt1NJTRzk_xrBLX47MiwFwwvi8BRbRIG35Mu8fjoX5xv-Uxv1nfxlJE9TXJ7ra13G3wR8wmIzyOF0jtibv3BSgLHqp-46MPs2VmYWJQBz9Snc8DubvQkqggR60JGMYA4WDnbxrschVtstxvsUtjgXBmvDa3DxuSN-Tv3B0UU9lK9lo97u0H9pUs7FI2L9nyUbhHEaNpz0pIMrySvaGafKrOAqNG-MnbjMUtVz7vohbLxzudP_5MtardnU0000]--></g></svg>