<?xml version="1.0" encoding="us-ascii" standalone="no"?><svg xmlns="http://www.w3.org/2000/svg" xmlns:xlink="http://www.w3.org/1999/xlink" contentStyleType="text/css" height="322px" preserveAspectRatio="none" style="width:283px;height:322px;background:#FFFFFF;" version="1.1" viewBox="0 0 283 322" width="283px" zoomAndPan="magnify"><defs/><g><!--class Student--><g id="elem_Student"><rect codeLine="1" fill="#F1F1F1" height="105.2038" id="Student" rx="2.5" ry="2.5" style="stroke:#181818;stroke-width:0.5;" width="88" x="83" y="7"/><ellipse cx="99.35" cy="23" fill="#ADD1B2" rx="11" ry="11" style="stroke:#181818;stroke-width:1.0;"/><path d="M95.7094,29.5 L95.7094,17.3594 L103.3656,17.3594 L103.3656,19.4844 L98.0844,19.4844 L98.0844,22.1406 L103.1,22.1406 L103.1,24.2656 L98.0844,24.2656 L98.0844,27.375 L103.3656,27.375 L103.3656,29.5 L95.7094,29.5 Z " fill="#000000"/><text fill="#000000" font-family="sans-serif" font-size="14" lengthAdjust="spacing" textLength="53" x="113.65" y="28.432">Student</text><line style="stroke:#181818;stroke-width:0.5;" x1="84" x2="170" y1="39" y2="39"/><text fill="#000000" font-family="sans-serif" font-size="14" lengthAdjust="spacing" textLength="33" x="89" y="57.9659">tg_id</text><text fill="#000000" font-family="sans-serif" font-size="14" lengthAdjust="spacing" textLength="76" x="89" y="77.0339">member_id</text><text fill="#000000" font-family="sans-serif" font-size="14" lengthAdjust="spacing" textLength="38" x="89" y="96.1018">name</text><line style="stroke:#181818;stroke-width:0.5;" x1="84" x2="170" y1="104.2038" y2="104.2038"/></g><!--class Teacher--><g id="elem_Teacher"><rect codeLine="7" fill="#F1F1F1" height="105.2038" id="Teacher" rx="2.5" ry="2.5" style="stroke:#181818;stroke-width:0.5;" width="88" x="7" y="191.27"/><ellipse cx="22.9" cy="207.27" fill="#ADD1B2" rx="11" ry="11" style="stroke:#181818;stroke-width:1.0;"/><path d="M19.2594,213.77 L19.2594,201.6294 L26.9156,201.6294 L26.9156,203.7544 L21.6344,203.7544 L21.6344,206.4106 L26.65,206.4106 L26.65,208.5356 L21.6344,208.5356 L21.6344,211.645 L26.9156,211.645 L26.9156,213.77 L19.2594,213.77 Z " fill="#000000"/><text fill="#000000" font-family="sans-serif" font-size="14" lengthAdjust="spacing" textLength="54" x="37.1" y="212.702">Teacher</text><line style="stroke:#181818;stroke-width:0.5;" x1="8" x2="94" y1="223.27" y2="223.27"/><text fill="#000000" font-family="sans-serif" font-size="14" lengthAdjust="spacing" textLength="33" x="13" y="242.2359">tg_id</text><text fill="#000000" font-family="sans-serif" font-size="14" lengthAdjust="spacing" textLength="76" x="13" y="261.3039">member_id</text><text fill="#000000" font-family="sans-serif" font-size="14" lengthAdjust="spacing" textLength="38" x="13" y="280.3718">name</text><line style="stroke:#181818;stroke-width:0.5;" x1="8" x2="94" y1="288.4738" y2="288.4738"/></g><!--class Note--><g id="elem_Note"><rect codeLine="13" fill="#F1F1F1" height="143.3396" id="Note" rx="2.5" ry="2.5" style="stroke:#181818;stroke-width:0.5;" width="146" x="130" y="172.2"/><ellipse cx="182.75" cy="188.2" fill="#ADD1B2" rx="11" ry="11" style="stroke:#181818;stroke-width:1.0;"/><path d="M179.1094,194.7 L179.1094,182.5594 L186.7656,182.5594 L186.7656,184.6844 L181.4844,184.6844 L181.4844,187.3406 L186.5,187.3406 L186.5,189.4656 L181.4844,189.4656 L181.4844,192.575 L186.7656,192.575 L186.7656,194.7 L179.1094,194.7 Z " fill="#000000"/><text fill="#000000" font-family="sans-serif" font-size="14" lengthAdjust="spacing" textLength="32" x="203.25" y="193.632">Note</text><line style="stroke:#181818;stroke-width:0.5;" x1="131" x2="275" y1="204.2" y2="204.2"/><text fill="#000000" font-family="sans-serif" font-size="14" lengthAdjust="spacing" textLength="134" x="136" y="223.1659">student_member_id</text><text fill="#000000" font-family="sans-serif" font-size="14" lengthAdjust="spacing" textLength="54" x="136" y="242.2339">number</text><text fill="#000000" font-family="sans-serif" font-size="14" lengthAdjust="spacing" textLength="72" x="136" y="261.3018">discription</text><text fill="#000000" font-family="sans-serif" font-size="14" lengthAdjust="spacing" textLength="54" x="136" y="280.3697">number</text><text fill="#000000" font-family="sans-serif" font-size="14" lengthAdjust="spacing" textLength="31" x="136" y="299.4376">path</text><line style="stroke:#181818;stroke-width:0.5;" x1="131" x2="275" y1="307.5396" y2="307.5396"/></g><!--link Student to Teacher--><g id="link_Student_Teacher"><path codeLine="21" d="M98.4984,128.956 C88.2384,153.586 85.9893,158.9664 75.7093,183.6164 " fill="none" id="Student-Teacher" style="stroke:#181818;stroke-width:1.0;"/><line style="stroke:#181818;stroke-width:1.0;" x1="102.3437" x2="99.8813" y1="119.7249" y2="110.0328"/><line style="stroke:#181818;stroke-width:1.0;" x1="102.3437" x2="110.9587" y1="119.7249" y2="114.6472"/><line style="stroke:#181818;stroke-width:1.0;" x1="102.3437" x2="105.42" y1="119.7249" y2="112.34"/><ellipse cx="100.0365" cy="125.2635" fill="none" rx="4" ry="4" style="stroke:#181818;stroke-width:1.0;"/><line style="stroke:#181818;stroke-width:1.0;" x1="77.8615" x2="70.4778" y1="188.8478" y2="185.7685"/><line style="stroke:#181818;stroke-width:1.0;" x1="79.0162" x2="71.6325" y1="186.0789" y2="182.9997"/><line style="stroke:#181818;stroke-width:1.0;" x1="75.7093" x2="72.63" y1="183.6164" y2="191"/></g><!--link Student to Note--><g id="link_Student_Note"><path codeLine="22" d="M151.6566,119.7247 C159.3766,138.2547 158.2062,135.4691 166.4962,155.3291 " fill="none" id="Student-Note" style="stroke:#181818;stroke-width:1.0;"/><line style="stroke:#181818;stroke-width:1.0;" x1="146.426" x2="153.8107" y1="117.5707" y2="114.494"/><line style="stroke:#181818;stroke-width:1.0;" x1="147.5797" x2="154.9644" y1="120.34" y2="117.2633"/><line style="stroke:#181818;stroke-width:1.0;" x1="151.6566" x2="148.58" y1="119.7247" y2="112.34"/><line style="stroke:#181818;stroke-width:1.0;" x1="170.3483" x2="178.967" y1="164.5574" y2="169.6287"/><line style="stroke:#181818;stroke-width:1.0;" x1="170.3483" x2="167.893" y1="164.5574" y2="174.2513"/><line style="stroke:#181818;stroke-width:1.0;" x1="170.3483" x2="173.43" y1="164.5574" y2="171.94"/><ellipse cx="168.0371" cy="159.0204" fill="none" rx="4" ry="4" style="stroke:#181818;stroke-width:1.0;"/></g><!--SRC=[bKuv4e0W3Epp2Zx0LsoqTr1sD0NWO2mSyUygg8MTgNQJx04lBAkgPR7mif4wHuQMRKOEhaDyc3SEj1EXQ1gOVaJyfQc2e0ZcajX-tfUBPMXvxYDFmi5_JvEHyJAzMwizQ9tIK-XTfwHrs78c7G00]--></g></svg>