<?xml version="1.0" encoding="us-ascii" standalone="no"?><svg xmlns="http://www.w3.org/2000/svg" xmlns:xlink="http://www.w3.org/1999/xlink" contentStyleType="text/css" height="341px" preserveAspectRatio="none" style="width:645px;height:341px;background:#FFFFFF;" version="1.1" viewBox="0 0 645 341" width="645px" zoomAndPan="magnify"><defs/><g><!--class all_members--><g id="elem_all_members"><rect codeLine="1" fill="#F1F1F1" height="124.2717" id="all_members" rx="2.5" ry="2.5" style="stroke:#181818;stroke-width:0.5;" width="144" x="36.5" y="26.07"/><ellipse cx="63.2" cy="42.07" fill="#ADD1B2" rx="11" ry="11" style="stroke:#181818;stroke-width:1.0;"/><path d="M59.5594,48.57 L59.5594,36.4294 L67.2156,36.4294 L67.2156,38.5544 L61.9344,38.5544 L61.9344,41.2106 L66.95,41.2106 L66.95,43.3356 L61.9344,43.3356 L61.9344,46.445 L67.2156,46.445 L67.2156,48.57 L59.5594,48.57 Z " fill="#000000"/><text fill="#000000" font-family="sans-serif" font-size="14" lengthAdjust="spacing" textLength="86" x="79.8" y="47.502">all_members</text><line style="stroke:#181818;stroke-width:0.5;" x1="37.5" x2="179.5" y1="58.07" y2="58.07"/><text fill="#000000" font-family="sans-serif" font-size="14" lengthAdjust="spacing" textLength="89" x="42.5" y="77.0359">tg_id: BIGINT</text><text fill="#000000" font-family="sans-serif" font-size="14" lengthAdjust="spacing" textLength="132" x="42.5" y="96.1039">member_id: BIGINT</text><line style="stroke:#181818;stroke-width:1.0;" x1="37.5" x2="179.5" y1="104.2058" y2="104.2058"/><text fill="#000000" font-family="sans-serif" font-size="14" lengthAdjust="spacing" textLength="112" x="42.5" y="123.1718">status: VARCHAR</text><text fill="#000000" font-family="sans-serif" font-size="14" lengthAdjust="spacing" textLength="109" x="42.5" y="142.2397">name: VARCHAR</text></g><!--class notes_id--><g id="elem_notes_id"><rect codeLine="9" fill="#F1F1F1" height="105.2038" id="notes_id" rx="2.5" ry="2.5" style="stroke:#181818;stroke-width:0.5;" width="184" x="215.5" y="35.6"/><ellipse cx="275.25" cy="51.6" fill="#ADD1B2" rx="11" ry="11" style="stroke:#181818;stroke-width:1.0;"/><path d="M271.6094,58.1 L271.6094,45.9594 L279.2656,45.9594 L279.2656,48.0844 L273.9844,48.0844 L273.9844,50.7406 L279,50.7406 L279,52.8656 L273.9844,52.8656 L273.9844,55.975 L279.2656,55.975 L279.2656,58.1 L271.6094,58.1 Z " fill="#000000"/><text fill="#000000" font-family="sans-serif" font-size="14" lengthAdjust="spacing" textLength="56" x="295.75" y="57.032">notes_id</text><line style="stroke:#181818;stroke-width:0.5;" x1="216.5" x2="398.5" y1="67.6" y2="67.6"/><text fill="#000000" font-family="sans-serif" font-size="14" lengthAdjust="spacing" textLength="172" x="221.5" y="86.5659">student_id (tg_id): BIGINT</text><line style="stroke:#181818;stroke-width:1.0;" x1="216.5" x2="398.5" y1="94.6679" y2="94.6679"/><text fill="#000000" font-family="sans-serif" font-size="14" lengthAdjust="spacing" textLength="81" x="221.5" y="113.6339">note_id: INT</text><text fill="#000000" font-family="sans-serif" font-size="14" lengthAdjust="spacing" textLength="73" x="221.5" y="132.7018">data: DATE</text></g><!--class notes_info--><g id="elem_notes_info"><rect codeLine="16" fill="#F1F1F1" height="162.4075" id="notes_info" rx="2.5" ry="2.5" style="stroke:#181818;stroke-width:0.5;" width="203" x="435" y="7"/><ellipse cx="497.75" cy="23" fill="#ADD1B2" rx="11" ry="11" style="stroke:#181818;stroke-width:1.0;"/><path d="M494.1094,29.5 L494.1094,17.3594 L501.7656,17.3594 L501.7656,19.4844 L496.4844,19.4844 L496.4844,22.1406 L501.5,22.1406 L501.5,24.2656 L496.4844,24.2656 L496.4844,27.375 L501.7656,27.375 L501.7656,29.5 L494.1094,29.5 Z " fill="#000000"/><text fill="#000000" font-family="sans-serif" font-size="14" lengthAdjust="spacing" textLength="69" x="518.25" y="28.432">notes_info</text><line style="stroke:#181818;stroke-width:0.5;" x1="436" x2="637" y1="39" y2="39"/><text fill="#000000" font-family="sans-serif" font-size="14" lengthAdjust="spacing" textLength="191" x="441" y="57.9659">student_id (member_id): INT</text><line style="stroke:#181818;stroke-width:1.0;" x1="436" x2="637" y1="66.0679" y2="66.0679"/><text fill="#000000" font-family="sans-serif" font-size="14" lengthAdjust="spacing" textLength="145" x="441" y="85.0339">note_name: VARCHAR</text><text fill="#000000" font-family="sans-serif" font-size="14" lengthAdjust="spacing" textLength="86" x="441" y="104.1018">number: INT</text><text fill="#000000" font-family="sans-serif" font-size="14" lengthAdjust="spacing" textLength="138" x="441" y="123.1697">note_path: VARCHAR</text><text fill="#000000" font-family="sans-serif" font-size="14" lengthAdjust="spacing" textLength="111" x="441" y="142.2376">file_id: VARCHAR</text><text fill="#000000" font-family="sans-serif" font-size="14" lengthAdjust="spacing" textLength="73" x="441" y="161.3055">date: DATE</text></g><!--class number_notes--><g id="elem_number_notes"><rect codeLine="26" fill="#F1F1F1" height="105.2038" id="number_notes" rx="2.5" ry="2.5" style="stroke:#181818;stroke-width:0.5;" width="203" x="7" y="229.41"/><ellipse cx="55.75" cy="245.41" fill="#ADD1B2" rx="11" ry="11" style="stroke:#181818;stroke-width:1.0;"/><path d="M52.1094,251.91 L52.1094,239.7694 L59.7656,239.7694 L59.7656,241.8944 L54.4844,241.8944 L54.4844,244.5506 L59.5,244.5506 L59.5,246.6756 L54.4844,246.6756 L54.4844,249.785 L59.7656,249.785 L59.7656,251.91 L52.1094,251.91 Z " fill="#000000"/><text fill="#000000" font-family="sans-serif" font-size="14" lengthAdjust="spacing" textLength="97" x="76.25" y="250.842">number_notes</text><line style="stroke:#181818;stroke-width:0.5;" x1="8" x2="209" y1="261.41" y2="261.41"/><text fill="#000000" font-family="sans-serif" font-size="14" lengthAdjust="spacing" textLength="191" x="13" y="280.3759">student_id (member_id): INT</text><line style="stroke:#181818;stroke-width:1.0;" x1="8" x2="209" y1="288.4779" y2="288.4779"/><text fill="#000000" font-family="sans-serif" font-size="14" lengthAdjust="spacing" textLength="84" x="13" y="307.4439">amount: INT</text><text fill="#000000" font-family="sans-serif" font-size="14" lengthAdjust="spacing" textLength="116" x="13" y="326.5118">last_number: INT</text></g><!--class teacher_student--><g id="elem_teacher_student"><rect codeLine="33" fill="#F1F1F1" height="105.2038" id="teacher_student" rx="2.5" ry="2.5" style="stroke:#181818;stroke-width:0.5;" width="203" x="245" y="229.41"/><ellipse cx="287.9" cy="245.41" fill="#ADD1B2" rx="11" ry="11" style="stroke:#181818;stroke-width:1.0;"/><path d="M284.2594,251.91 L284.2594,239.7694 L291.9156,239.7694 L291.9156,241.8944 L286.6344,241.8944 L286.6344,244.5506 L291.65,244.5506 L291.65,246.6756 L286.6344,246.6756 L286.6344,249.785 L291.9156,249.785 L291.9156,251.91 L284.2594,251.91 Z " fill="#000000"/><text fill="#000000" font-family="sans-serif" font-size="14" lengthAdjust="spacing" textLength="109" x="308.1" y="250.842">teacher_student</text><line style="stroke:#181818;stroke-width:0.5;" x1="246" x2="447" y1="261.41" y2="261.41"/><text fill="#000000" font-family="sans-serif" font-size="14" lengthAdjust="spacing" textLength="191" x="251" y="280.3759">student_id (member_id): INT</text><text fill="#000000" font-family="sans-serif" font-size="14" lengthAdjust="spacing" textLength="190" x="251" y="299.4439">teacher_id (member_id): INT</text><line style="stroke:#181818;stroke-width:1.0;" x1="246" x2="447" y1="307.5458" y2="307.5458"/><text fill="#000000" font-family="sans-serif" font-size="14" lengthAdjust="spacing" textLength="173" x="251" y="326.5118">name (student): VARCHAR</text></g><!--class tables_info--><g id="elem_tables_info"><rect codeLine="40" fill="#F1F1F1" height="105.2038" id="tables_info" rx="2.5" ry="2.5" style="stroke:#181818;stroke-width:0.5;" width="121" x="483" y="229.41"/><ellipse cx="505.2" cy="245.41" fill="#ADD1B2" rx="11" ry="11" style="stroke:#181818;stroke-width:1.0;"/><path d="M501.5594,251.91 L501.5594,239.7694 L509.2156,239.7694 L509.2156,241.8944 L503.9344,241.8944 L503.9344,244.5506 L508.95,244.5506 L508.95,246.6756 L503.9344,246.6756 L503.9344,249.785 L509.2156,249.785 L509.2156,251.91 L501.5594,251.91 Z " fill="#000000"/><text fill="#000000" font-family="sans-serif" font-size="14" lengthAdjust="spacing" textLength="73" x="520.8" y="250.842">tables_info</text><line style="stroke:#181818;stroke-width:0.5;" x1="484" x2="603" y1="261.41" y2="261.41"/><text fill="#000000" font-family="sans-serif" font-size="14" lengthAdjust="spacing" textLength="109" x="489" y="280.3759">name: VARCHAR</text><text fill="#000000" font-family="sans-serif" font-size="14" lengthAdjust="spacing" textLength="64" x="489" y="299.4439">rows: INT</text><text fill="#000000" font-family="sans-serif" font-size="14" lengthAdjust="spacing" textLength="58" x="489" y="318.5118">cols: INT</text><line style="stroke:#181818;stroke-width:0.5;" x1="484" x2="603" y1="326.6138" y2="326.6138"/></g><!--SRC=[bP5D3e8m48NtdA9BM7W1TlWJPUF24BTaW28afJLsY366kri6f20aQZTDNsU-zphb4ajyC10YhdYLy9jcJuUPXPUup7os3lVXCIAbk_zKLolQD0BMscVduBGv12VI95JSAetZyCvCAkJQS7edZNLcRbh19LTloQ1j8k-tdW62pxP1j9kZPQuMuCC3F4iPqwTvIQxR3bjDPLV0ObgMbwBBDXPDFZxFHy2OOlwN42fLIxIo08tnE9yrGGvfOJ0z-KUVTzUtIPaXCRU7USEJsTWV4Z7zXVbaR-gkBJjLeZyrBm00]--></g></svg>