<?xml version="1.0" encoding="us-ascii" standalone="no"?><svg xmlns="http://www.w3.org/2000/svg" xmlns:xlink="http://www.w3.org/1999/xlink" contentStyleType="text/css" height="911px" preserveAspectRatio="none" style="width:760px;height:911px;background:#FFFFFF;" version="1.1" viewBox="0 0 760 911" width="760px" zoomAndPan="magnify"><defs/><g><rect fill="none" height="601.9661" style="stroke:#000000;stroke-width:1.5;" width="681.5" x="71.5" y="209.186"/><rect fill="none" height="379.7481" style="stroke:#000000;stroke-width:1.5;" width="661.5" x="81.5" y="424.404"/><line style="stroke:#181818;stroke-width:0.5;stroke-dasharray:5.0,5.0;" x1="122.5" x2="122.5" y1="84.0679" y2="828.152"/><line style="stroke:#181818;stroke-width:0.5;stroke-dasharray:5.0,5.0;" x1="319" x2="319" y1="84.0679" y2="828.152"/><line style="stroke:#181818;stroke-width:0.5;stroke-dasharray:5.0,5.0;" x1="522.5" x2="522.5" y1="84.0679" y2="828.152"/><text fill="#000000" font-family="sans-serif" font-size="14" lengthAdjust="spacing" textLength="57" x="91.5" y="79.9659">Member</text><ellipse cx="123" cy="13.5" fill="#E2E2F0" rx="8" ry="8" style="stroke:#181818;stroke-width:0.5;"/><path d="M123,21.5 L123,48.5 M110,29.5 L136,29.5 M123,48.5 L110,63.5 M123,48.5 L136,63.5 " fill="none" style="stroke:#181818;stroke-width:0.5;"/><text fill="#000000" font-family="sans-serif" font-size="14" lengthAdjust="spacing" textLength="57" x="91.5" y="842.118">Member</text><ellipse cx="123" cy="854.7199" fill="#E2E2F0" rx="8" ry="8" style="stroke:#181818;stroke-width:0.5;"/><path d="M123,862.7199 L123,889.7199 M110,870.7199 L136,870.7199 M123,889.7199 L110,904.7199 M123,889.7199 L136,904.7199 " fill="none" style="stroke:#181818;stroke-width:0.5;"/><rect fill="#E2E2F0" height="33.0679" rx="2.5" ry="2.5" style="stroke:#181818;stroke-width:0.5;" width="36" x="301" y="50"/><text fill="#000000" font-family="sans-serif" font-size="14" lengthAdjust="spacing" textLength="22" x="308" y="71.9659">Bot</text><rect fill="#E2E2F0" height="33.0679" rx="2.5" ry="2.5" style="stroke:#181818;stroke-width:0.5;" width="36" x="301" y="827.152"/><text fill="#000000" font-family="sans-serif" font-size="14" lengthAdjust="spacing" textLength="22" x="308" y="849.118">Bot</text><text fill="#000000" font-family="sans-serif" font-size="14" lengthAdjust="spacing" textLength="63" x="488.5" y="79.9659">DataBase</text><path d="M505,29 C505,19 523,19 523,19 C523,19 541,19 541,29 L541,55 C541,65 523,65 523,65 C523,65 505,65 505,55 L505,29 " fill="#E2E2F0" style="stroke:#181818;stroke-width:1.5;"/><path d="M505,29 C505,39 523,39 523,39 C523,39 541,39 541,29 " fill="none" style="stroke:#181818;stroke-width:1.5;"/><text fill="#000000" font-family="sans-serif" font-size="14" lengthAdjust="spacing" textLength="63" x="488.5" y="842.118">DataBase</text><path d="M505,856.2199 C505,846.2199 523,846.2199 523,846.2199 C523,846.2199 541,846.2199 541,856.2199 L541,882.2199 C541,892.2199 523,892.2199 523,892.2199 C523,892.2199 505,892.2199 505,882.2199 L505,856.2199 " fill="#E2E2F0" style="stroke:#181818;stroke-width:1.5;"/><path d="M505,856.2199 C505,866.2199 523,866.2199 523,866.2199 C523,866.2199 541,866.2199 541,856.2199 " fill="none" style="stroke:#181818;stroke-width:1.5;"/><polygon fill="#181818" points="307,113.7739,317,117.7739,307,121.7739,311,117.7739" style="stroke:#181818;stroke-width:1.0;"/><line style="stroke:#181818;stroke-width:1.0;" x1="123" x2="313" y1="117.7739" y2="117.7739"/><text fill="#000000" font-family="sans-serif" font-size="13" lengthAdjust="spacing" textLength="172" x="130" y="111.9649">&#1042;&#1099;&#1079;&#1086;&#1074; &#1082;&#1086;&#1084;&#1072;&#1085;&#1076;&#1099; "/get_note"</text><polygon fill="#181818" points="511,145.4799,521,149.4799,511,153.4799,515,149.4799" style="stroke:#181818;stroke-width:1.0;"/><line style="stroke:#181818;stroke-width:1.0;" x1="319" x2="517" y1="149.4799" y2="149.4799"/><text fill="#000000" font-family="sans-serif" font-size="13" lengthAdjust="spacing" textLength="160" x="326" y="143.6709">&#1047;&#1072;&#1087;&#1088;&#1086;&#1089; &#1089;&#1090;&#1072;&#1090;&#1091;&#1089;&#1072; &#1091;&#1095;&#1072;&#1089;&#1090;&#1085;&#1080;&#1082;&#1072;</text><line style="stroke:#181818;stroke-width:1.0;" x1="523" x2="565" y1="181.186" y2="181.186"/><line style="stroke:#181818;stroke-width:1.0;" x1="565" x2="565" y1="181.186" y2="194.186"/><line style="stroke:#181818;stroke-width:1.0;" x1="524" x2="565" y1="194.186" y2="194.186"/><polygon fill="#181818" points="534,190.186,524,194.186,534,198.186,530,194.186" style="stroke:#181818;stroke-width:1.0;"/><text fill="#000000" font-family="sans-serif" font-size="13" lengthAdjust="spacing" textLength="186" x="530" y="175.377">&#1055;&#1086;&#1083;&#1091;&#1095;&#1077;&#1085;&#1080;&#1077; &#1089;&#1090;&#1072;&#1090;&#1091;&#1089;&#1072; &#1091;&#1095;&#1072;&#1089;&#1090;&#1085;&#1080;&#1082;&#1072;</text><path d="M71.5,209.186 L134.5,209.186 L134.5,218.892 L124.5,228.892 L71.5,228.892 L71.5,209.186 " fill="#EEEEEE" style="stroke:#000000;stroke-width:1.5;"/><rect fill="none" height="601.9661" style="stroke:#000000;stroke-width:1.5;" width="681.5" x="71.5" y="209.186"/><text fill="#000000" font-family="sans-serif" font-size="13" font-weight="bold" lengthAdjust="spacing" textLength="18" x="86.5" y="224.083">alt</text><text fill="#000000" font-family="sans-serif" font-size="11" font-weight="bold" lengthAdjust="spacing" textLength="108" x="149.5" y="222.9449">["status = teacher"]</text><polygon fill="#181818" points="330,248.598,320,252.598,330,256.598,326,252.598" style="stroke:#181818;stroke-width:1.0;"/><line style="stroke:#181818;stroke-width:1.0;stroke-dasharray:2.0,2.0;" x1="324" x2="522" y1="252.598" y2="252.598"/><text fill="#000000" font-family="sans-serif" font-size="13" lengthAdjust="spacing" textLength="105" x="336" y="246.789">&#1057;&#1090;&#1072;&#1090;&#1091;&#1089; "&#1059;&#1095;&#1080;&#1090;&#1077;&#1083;&#1100;"</text><polygon fill="#181818" points="134,280.304,124,284.304,134,288.304,130,284.304" style="stroke:#181818;stroke-width:1.0;"/><line style="stroke:#181818;stroke-width:1.0;stroke-dasharray:2.0,2.0;" x1="128" x2="318" y1="284.304" y2="284.304"/><text fill="#000000" font-family="sans-serif" font-size="13" lengthAdjust="spacing" textLength="155" x="140" y="278.495">&#1069;&#1090;&#1072; &#1082;&#1086;&#1084;&#1072;&#1085;&#1076;&#1072; &#1085;&#1077;&#1076;&#1086;&#1089;&#1090;&#1091;&#1087;&#1085;&#1072;</text><line style="stroke:#000000;stroke-width:1.0;stroke-dasharray:2.0,2.0;" x1="71.5" x2="753" y1="293.304" y2="293.304"/><text fill="#000000" font-family="sans-serif" font-size="11" font-weight="bold" lengthAdjust="spacing" textLength="107" x="76.5" y="305.0629">["status = student"]</text><polygon fill="#181818" points="330,328.9919,320,332.9919,330,336.9919,326,332.9919" style="stroke:#181818;stroke-width:1.0;"/><line style="stroke:#181818;stroke-width:1.0;" x1="324" x2="522" y1="332.9919" y2="332.9919"/><text fill="#000000" font-family="sans-serif" font-size="13" lengthAdjust="spacing" textLength="99" x="336" y="327.1829">&#1057;&#1090;&#1072;&#1090;&#1091;&#1089; "&#1059;&#1095;&#1077;&#1085;&#1080;&#1082;"</text><polygon fill="#181818" points="511,360.6979,521,364.6979,511,368.6979,515,364.6979" style="stroke:#181818;stroke-width:1.0;"/><line style="stroke:#181818;stroke-width:1.0;" x1="319" x2="517" y1="364.6979" y2="364.6979"/><text fill="#000000" font-family="sans-serif" font-size="13" lengthAdjust="spacing" textLength="180" x="326" y="358.8889">&#1047;&#1072;&#1087;&#1088;&#1086;&#1089; &#1074;&#1089;&#1077;&#1093; &#1074;&#1089;&#1077;&#1093; &#1082;&#1086;&#1085;&#1089;&#1087;&#1077;&#1082;&#1090;&#1086;&#1074;</text><line style="stroke:#181818;stroke-width:1.0;" x1="523" x2="565" y1="396.404" y2="396.404"/><line style="stroke:#181818;stroke-width:1.0;" x1="565" x2="565" y1="396.404" y2="409.404"/><line style="stroke:#181818;stroke-width:1.0;" x1="524" x2="565" y1="409.404" y2="409.404"/><polygon fill="#181818" points="534,405.404,524,409.404,534,413.404,530,409.404" style="stroke:#181818;stroke-width:1.0;"/><text fill="#000000" font-family="sans-serif" font-size="13" lengthAdjust="spacing" textLength="191" x="530" y="390.595">&#1055;&#1086;&#1083;&#1091;&#1095;&#1077;&#1085;&#1080;&#1077; &#1089;&#1087;&#1080;&#1089;&#1082;&#1072; &#1082;&#1086;&#1085;&#1089;&#1087;&#1077;&#1082;&#1090;&#1086;&#1074;</text><path d="M81.5,424.404 L144.5,424.404 L144.5,434.11 L134.5,444.11 L81.5,444.11 L81.5,424.404 " fill="#EEEEEE" style="stroke:#000000;stroke-width:1.5;"/><rect fill="none" height="379.7481" style="stroke:#000000;stroke-width:1.5;" width="661.5" x="81.5" y="424.404"/><text fill="#000000" font-family="sans-serif" font-size="13" font-weight="bold" lengthAdjust="spacing" textLength="18" x="96.5" y="439.301">alt</text><text fill="#000000" font-family="sans-serif" font-size="11" font-weight="bold" lengthAdjust="spacing" textLength="121" x="159.5" y="438.1629">["empty list of notes"]</text><polygon fill="#181818" points="330,463.816,320,467.816,330,471.816,326,467.816" style="stroke:#181818;stroke-width:1.0;"/><line style="stroke:#181818;stroke-width:1.0;" x1="324" x2="522" y1="467.816" y2="467.816"/><text fill="#000000" font-family="sans-serif" font-size="13" lengthAdjust="spacing" textLength="91" x="336" y="462.007">&#1055;&#1091;&#1089;&#1090;&#1086;&#1081; &#1089;&#1087;&#1080;&#1089;&#1086;&#1082;</text><polygon fill="#181818" points="134,495.522,124,499.522,134,503.522,130,499.522" style="stroke:#181818;stroke-width:1.0;"/><line style="stroke:#181818;stroke-width:1.0;" x1="128" x2="318" y1="499.522" y2="499.522"/><text fill="#000000" font-family="sans-serif" font-size="13" lengthAdjust="spacing" textLength="130" x="140" y="493.713">&#1050;&#1086;&#1085;&#1089;&#1087;&#1077;&#1082;&#1090;&#1086;&#1074; &#1087;&#1086;&#1082;&#1072; &#1085;&#1077;&#1090;</text><line style="stroke:#000000;stroke-width:1.0;stroke-dasharray:2.0,2.0;" x1="81.5" x2="743" y1="508.522" y2="508.522"/><text fill="#000000" font-family="sans-serif" font-size="11" font-weight="bold" lengthAdjust="spacing" textLength="146" x="86.5" y="520.2809">["non-empty list of notes"]</text><polygon fill="#181818" points="330,544.2099,320,548.2099,330,552.2099,326,548.2099" style="stroke:#181818;stroke-width:1.0;"/><line style="stroke:#181818;stroke-width:1.0;" x1="324" x2="522" y1="548.2099" y2="548.2099"/><text fill="#000000" font-family="sans-serif" font-size="13" lengthAdjust="spacing" textLength="120" x="336" y="542.4009">&#1057;&#1087;&#1080;&#1089;&#1086;&#1082; &#1082;&#1086;&#1085;&#1089;&#1087;&#1077;&#1082;&#1090;&#1086;&#1074;</text><polygon fill="#181818" points="134,575.9159,124,579.9159,134,583.9159,130,579.9159" style="stroke:#181818;stroke-width:1.0;"/><line style="stroke:#181818;stroke-width:1.0;" x1="128" x2="318" y1="579.9159" y2="579.9159"/><text fill="#000000" font-family="sans-serif" font-size="13" lengthAdjust="spacing" textLength="163" x="140" y="574.1069">&#1047;&#1072;&#1087;&#1088;&#1086;&#1089; &#1085;&#1086;&#1084;&#1077;&#1088;&#1072; &#1082;&#1086;&#1085;&#1089;&#1087;&#1077;&#1082;&#1090;&#1072;</text><line style="stroke:#181818;stroke-width:1.0;" x1="81" x2="123" y1="611.6219" y2="611.6219"/><line style="stroke:#181818;stroke-width:1.0;" x1="81" x2="81" y1="611.6219" y2="624.6219"/><line style="stroke:#181818;stroke-width:1.0;" x1="81" x2="122" y1="624.6219" y2="624.6219"/><polygon fill="#181818" points="114,620.6219,124,624.6219,114,628.6219,118,624.6219" style="stroke:#181818;stroke-width:1.0;"/><text fill="#000000" font-family="sans-serif" font-size="13" lengthAdjust="spacing" textLength="109" x="14" y="605.8129">&#1042;&#1099;&#1073;&#1086;&#1088; &#1082;&#1086;&#1085;&#1089;&#1087;&#1077;&#1082;&#1090;&#1072;</text><polygon fill="#181818" points="307,652.328,317,656.328,307,660.328,311,656.328" style="stroke:#181818;stroke-width:1.0;"/><line style="stroke:#181818;stroke-width:1.0;" x1="123" x2="313" y1="656.328" y2="656.328"/><text fill="#000000" font-family="sans-serif" font-size="13" lengthAdjust="spacing" textLength="160" x="130" y="650.519">&#1042;&#1099;&#1073;&#1086;&#1088; &#1085;&#1086;&#1084;&#1077;&#1088;&#1072; &#1082;&#1086;&#1085;&#1089;&#1087;&#1077;&#1082;&#1090;&#1072;</text><polygon fill="#181818" points="511,684.034,521,688.034,511,692.034,515,688.034" style="stroke:#181818;stroke-width:1.0;"/><line style="stroke:#181818;stroke-width:1.0;" x1="319" x2="517" y1="688.034" y2="688.034"/><text fill="#000000" font-family="sans-serif" font-size="13" lengthAdjust="spacing" textLength="175" x="326" y="682.225">&#1047;&#1072;&#1087;&#1088;&#1086;&#1089; &#1092;&#1072;&#1081;&#1083;&#1072; &#1089; &#1082;&#1086;&#1085;&#1089;&#1087;&#1077;&#1082;&#1090;&#1086;&#1084;</text><line style="stroke:#181818;stroke-width:1.0;" x1="523" x2="565" y1="719.74" y2="719.74"/><line style="stroke:#181818;stroke-width:1.0;" x1="565" x2="565" y1="719.74" y2="732.74"/><line style="stroke:#181818;stroke-width:1.0;" x1="524" x2="565" y1="732.74" y2="732.74"/><polygon fill="#181818" points="534,728.74,524,732.74,534,736.74,530,732.74" style="stroke:#181818;stroke-width:1.0;"/><text fill="#000000" font-family="sans-serif" font-size="13" lengthAdjust="spacing" textLength="201" x="530" y="713.931">&#1055;&#1086;&#1083;&#1091;&#1095;&#1077;&#1085;&#1080;&#1077; &#1092;&#1072;&#1081;&#1083;&#1072; &#1089; &#1082;&#1086;&#1085;&#1089;&#1087;&#1077;&#1082;&#1090;&#1086;&#1084;</text><polygon fill="#181818" points="330,760.446,320,764.446,330,768.446,326,764.446" style="stroke:#181818;stroke-width:1.0;"/><line style="stroke:#181818;stroke-width:1.0;" x1="324" x2="522" y1="764.446" y2="764.446"/><text fill="#000000" font-family="sans-serif" font-size="13" lengthAdjust="spacing" textLength="121" x="336" y="758.637">&#1060;&#1072;&#1081;&#1083; &#1089; &#1082;&#1086;&#1085;&#1089;&#1087;&#1077;&#1082;&#1090;&#1086;&#1084;</text><polygon fill="#181818" points="134,792.152,124,796.152,134,800.152,130,796.152" style="stroke:#181818;stroke-width:1.0;"/><line style="stroke:#181818;stroke-width:1.0;" x1="128" x2="318" y1="796.152" y2="796.152"/><text fill="#000000" font-family="sans-serif" font-size="13" lengthAdjust="spacing" textLength="121" x="140" y="790.343">&#1060;&#1072;&#1081;&#1083; &#1089; &#1082;&#1086;&#1085;&#1089;&#1087;&#1077;&#1082;&#1090;&#1086;&#1084;</text><!--SRC=[bLEnJiCm4Dtz5QVi5Ji21iJADo2dCL2fJQh67TXe0J70n8B4WYfOaG8YeeIc_ONp7_7i14AWgKga93xxlRjxpxPiwsX0-whdgm79c7ezN_JbG7VQdRuCDUr6saxxaHQ1rDANiQ8z37Rj00k1JqA0HAqT2w9DuXjpnMyyvnVY3ByP9vppgxaYR-D8wOCmqieJ5WiAw63S0h8mfpmt8p8ZC-R4ZCsP6N52-5qYj9CvJv4m4O5VC46yH_uF1qdTShe6NSYk9Y_MKWzZsYQjPFjO3JoNjX8ngTAGnm_8CiLCYchNPVF0Mjt0FbbiJQmDSw1VhIIRXHU84w6wSAsg7UjXe4BjbP8QInVYiXMkyGlafkRYny2saoDOW9uX9JRaspfgy0xWARxPbvpVVCBZx5EzlZwXRYVM51sItTBOSwir9VTMWwE-Lyddd3bagQNqyEvlDK8mBtg1bsRiM8M3OHIsrcjXKbLjbbHlfUPhxZOrHRZ4aiInBMshzSMsf_yPtDDLyFfbAU5hb6g-DUS8tld37ldHCg6p7zOqxlz_afJzFnQKbOIwlUimL1W8l9y0]--></g></svg>